<?xml version="1.0" encoding="UTF-8"?>
<svg id="Calque_1" data-name="Calque 1" xmlns="http://www.w3.org/2000/svg" viewBox="0 0 600 600">
  <defs>
    <style>
      .cls-1 {
        fill: #ffd7b1;
      }

      .cls-2 {
        fill: #a8b3a5;
      }

      .cls-3 {
        fill: #303e5d;
      }

      .cls-4 {
        fill: #9daaa3;
      }

      .cls-5 {
        fill: #98a39e;
      }

      .cls-6 {
        fill: #fdb58c;
      }

      .cls-7 {
        fill: #233859;
      }

      .cls-8 {
        fill: #ff8a6e;
      }

      .cls-9 {
        fill: #88f2bd;
      }

      .cls-10 {
        fill: #ce9882;
      }

      .cls-11 {
        fill: #ffd3ac;
      }

      .cls-12 {
        fill: #ed5e49;
      }

      .cls-13 {
        fill: #a1aea1;
      }

      .cls-14 {
        fill: #ffae85;
      }

      .cls-15 {
        fill: #906a6d;
      }

      .cls-16 {
        fill: #ff9475;
      }

      .cls-17 {
        fill: #ff9476;
      }

      .cls-18 {
        fill: #7cbfb5;
      }

      .cls-19 {
        fill: #cf443a;
      }

      .cls-20 {
        fill: #63dbc4;
      }

      .cls-21 {
        fill: #fe9e73;
      }

      .cls-22 {
        fill: #fffffe;
      }

      .cls-23 {
        fill: #fff;
      }

      .cls-24 {
        fill: #ff8768;
      }

      .cls-25 {
        fill: #ffb086;
      }

      .cls-26 {
        fill: #173459;
      }

      .cls-27 {
        fill: #fa8b6a;
      }

      .cls-28 {
        fill: #fefefe;
      }

      .cls-29 {
        fill: #ffe9cb;
      }

      .cls-30 {
        fill: #ffd7b2;
      }

      .cls-31 {
        fill: #e45c4c;
      }

      .cls-32 {
        fill: #e2a98b;
      }

      .cls-33 {
        fill: #fcfdfb;
      }

      .cls-34 {
        fill: #e5966f;
      }

      .cls-35 {
        fill: #feffff;
      }

      .cls-36 {
        fill: #ffd4ad;
      }

      .cls-37 {
        fill: #fe8569;
      }

      .cls-38 {
        fill: #f8fefe;
      }

      .cls-39 {
        fill: #343f5c;
      }

      .cls-40 {
        fill: #fea57c;
      }

      .cls-41 {
        fill: #da937d;
      }
    </style>
  </defs>
  <path class="cls-23" d="M193.66,156.75l-90.37.04c-5.74,0-9.43-3.71-9.5-9.52s3.33-10.87,7.66-13.81c5.12-3.47,11.13-3.67,17.55-1.42.18-8.45,3.64-16.03,9.82-20.76,6.59-5.04,15.15-6.59,23.16-3.73,10.05,3.59,16.34,12.29,17.71,23.13,7.84-5.48,17.41-6.21,25.21-.99,6.46,4.33,10.18,11.95,8.2,19.53-1.11,4.24-4.45,7.51-9.44,7.51Z"/>
  <g>
    <path class="cls-23" d="M110.26,376.78c-3.19-8.51-1.38-11.3-11.64-13.56-.52-.12-1.01-.54-1.02-.82-.03-1.65,8.67.56,11.33-8.42.52-1.77.41-3.95,1.99-5.3,2.49,10.85,2.67,10.93,12.8,13.86-11.09,3.34-9.9,2.91-13.47,14.24Z"/>
    <path class="cls-35" d="M144.77,438.32c-8.92,3.76-5.86,1.57-9.97,10.39-.59-6.02-3.57-8.61-9.5-10.09,6.12-1.22,8.52-4.01,9.82-10.02,1.38,5.86,3.61,8.98,9.64,9.73Z"/>
    <path class="cls-35" d="M168.18,84.85c-1.61-4.25-3.64-5.97-7.85-7.47,4.34-1.44,6.19-2.64,7.72-7.01,1.67,3.38,3.24,5.53,7.4,7.05-3.55,1.75-5.83,2.99-7.27,7.43Z"/>
    <path class="cls-28" d="M119.07,209.46c1.47-.71,3.08.11,3.63,1.33.7,1.56.25,3.08-1.45,3.97-.99.52-2.68.02-3.45-1.03-1.14-1.56-.34-3.48,1.28-4.27Z"/>
    <path class="cls-35" d="M129.11,281.85c1-.46,1.92.05,2.31.75.55.96.15,2.05-.96,2.68-.71.41-1.85.25-2.39-.89-.36-.77-.13-2.01,1.03-2.54Z"/>
  </g>
  <path class="cls-23" d="M438.3,122.17c-.27,1.64-.32,3.53-1.77,4.62-2.64-11.71-2.74-11-13.7-14.6,10.49-3.33,10.94-2.41,13.64-14.11,1.05-.08,1.4,1.49,1.48,2.48,1.01,12.26,13.58,9.82,12.1,11.66-1.23,1.52-10.1-.21-11.75,9.94Z"/>
  <path class="cls-23" d="M502.56,312.45c1.41-.5,2.7.37,3.16,1.39.64,1.43.08,2.98-1.56,3.64-1.05.42-2.81-.21-3.39-1.81-.36-.99.24-2.68,1.79-3.23Z"/>
  <path class="cls-28" d="M490.48,461.65c1.25-.84,2.69-.25,3.49.9s.37,2.43-.68,3.39-2.47.59-3.29-.29c-1.19-1.28-.93-3.05.48-4Z"/>
  <path class="cls-28" d="M484.79,128.21c1.18-1.09,2.61-.76,3.59.41.6.72.51,2.02-.52,3.03-.81.79-1.93.81-2.75.25-1.29-.89-1.63-2.47-.32-3.68Z"/>
  <g>
    <path class="cls-1" d="M206.17,556.75c-.56.11-1.65-.72-1.35-1.33,17.15-14.18,29.93-41.1,38.17-62.1,3.73-9.51,8.14-18.53,10.66-28.04,2.16-8.16-3.56-4.79,1.47-10.94.73-.25,1.21.52,1.52,1.47,2.6,8,2.99,16.07,1.13,24.46-3.56,16.05-9.01,31.28-16.1,46.05-2.89,6.02-6.25,11.09-10.41,16.2-6.6,8.11-15.37,12.27-25.09,14.25Z"/>
    <path class="cls-30" d="M401.51,556.2c.3.39-.37.61-.32,1.01l1.74,14.41c-4.27.76-8.61,2.42-12.96,2.24.19-1.96,2.4.46,3.34-1.91-20.36-9.33-33.6-35.51-42.51-55.19-.39-.86-.61-2.66-1.27-4.16l-1.72-3.94c-1.81-4.16-9.44-23.62-7.84-25.07,4.11,9.35,9.47,18.07,14.91,26.9,10.45,16.95,24.69,35.13,43.52,44.21.39-.39.82-.89.99-.34,1.07,3.55-.54-2.25,2.12,1.85Z"/>
    <g>
      <path class="cls-29" d="M294.36,331.83c1.11.84,1.94,1.97,3.45,2.65.14-.62.4-1.6.06-2.12,14.55,1.18,29.31.23,43.87-3.57,11.48-2.99,29.04-10.57,34.46-20.78,10.31,2.37,20.4,5.31,30.63,9.42,25.14,10.12,32.29,31.46,36.19,56.21,3.06,19.43,5.25,38.82,6.46,58.27,1.59,25.64,3.64,67.83.16,93.02-1.04,7.55-3.03,14.48-6.92,20.87-9.31,15.3-26.48,16.27-41.21,10.4-2.66-4.09-1.05,1.71-2.12-1.85-.17-.55-.6-.05-.99.34-18.83-9.08-33.07-27.26-43.52-44.21-5.44-8.83-10.79-17.55-14.91-26.9-1.61,1.45,6.03,20.91,7.84,25.07l1.72,3.94c.66,1.51.88,3.31,1.27,4.16,8.92,19.69,22.15,45.86,42.51,55.19-.94,2.36-3.16-.05-3.34,1.91-.87.7-2.14-.82-2.89.34-1.29,2-4.13-.24-5.09.74-1.07,1.09-3.24-.28-4.18.31-1.57.98-3.31.41-4.94.79l-3.44.79-11.32.41c-1.34.05-2.11,1.36-3.36,1.14-3.14-1.15-10.03.28-14.87.2-5.53-.09-10.79-.25-15.82.49-3.99.58-7.99.87-11.89.04-5.61-1.19-11.33-.32-17.09-.51-3.52-.11-7.01-1.35-10.2-.45-1.99.56-3.34-.61-4.63-.62-2.63-.02-4.51.11-6.93-.39,3.04.63-16.36-1.64-12.9-1.48-.71-.03-15.33-1.38-14.45-2.43-1.85.41-4.83.96-6.43-.94-1.03.48-1.93.89-2.43-.61-1.54.96-3.82,1.11-4.94-.9-1.25,1.19-1.89.34-2.55-.24-.37-.33-1.28.48-2.04.37-.54-.07-.99-1.2-1.59-1.19-.89.02-1.93.79-2.48.28-.27-.26-.2-.99-.94-1.04-.64.04-1.52.68-1.79.31l-.89-1.19c-.43,2.15-7.65-2.1-10.7-1.56,3.81-.67-1.9-.09-3.53-1.99-1.29-1.51.25-1.77.46-3,.28-1.66-1.1-3.46.05-4.77,9.73-1.98,18.49-6.14,25.09-14.25,4.16-5.11,7.52-10.18,10.41-16.2,7.09-14.77,12.53-30,16.1-46.05,1.86-8.38,1.46-16.46-1.13-24.46-.31-.95-.79-1.71-1.52-1.47.53-1.68,1.28-4.1,3.2-5.49,6.43-4.67,9.67-11.41,13.81-17.55,12.35,2.66,25.44,2.73,37.76-.03.94-.03,1.43.72,1.8,1.56,3.26,7.56,8.88,12.69,15.76,17,1.97,1.24,7.28,10.22,6.39,11.15l-2.03,2.11c-.45.46-.94,1.18-.89,1.73.03.3-.11,1.39.52.9-1.05.83,18.04-1.25,30.81-17.86.67-.87.28-1.77.2-2.2-.14-.73-1.9.28-2.33-.11-6.02-5.49-11.79-10.54-16.82-16.89-2.53-3.2-3.12-7.57-3.73-11.33-1.46-8.92-3.32-17.29-6.83-25.88-.41-1.01-.66-1.87-1.07-2.39-.88-1.12-2.25.52-2.99.16-2.21-1.1-3.24-3.27-5.27-4.76l4.99-38.46c.79-.44.86-1.82,1.33-2.32,4.12-4.36-18.37-5.3-20.91-5.46-11.4-.7-26.22-.63-37.22.66l-6.01.7c-2.84.33-6.27.5-8.34,3.23-.66.88.2,1.81.56,2.49.17.19.05.4.07.61l3.27,32.65c-.13.9-.62,2.21-1.86,2.16-.52-1.91-.96-3.77-2.43-4.69-1.72-1.08-3.12.43-3.51,1.95l-3.47,13.27c-1.46,5.56-3.87,10.53-4.7,16.27l-2.08,14.39c-1.41,9.79-10.02,15.79-16.46,23.43,5.14,8.52,16.92,19.37,27.04,19.96-2.52,9.52-6.93,18.53-10.66,28.04-8.24,21-21.02,47.93-38.17,62.1-1.46.85-3.71.17-4.8,1.92-.61.98-13.52,6.42-21.38,3.42-6.11-2.33-11.65-5.37-15.81-10.73-2.79-3.59-5.07-7.06-6.3-11.69-.39-1.48-1.59-3.42-1.31-5.06.06-.38-1.13-.81-1.07-1.27s.72-1.05.55-1.73c-.22-.88-1.19-1.14-1.28-1.95-1.27-11.44-.64-22.69.71-34.68,4.32-38.5,13.82-91.14,23.55-128.09,1.87-7.11,4.37-14.04,7.47-21.04,5.69-12.84,15.49-22.13,28.43-27.36,11.41-4.62,23-8.17,34.79-10.85,5.62,16,30.6,24.37,46,25.52Z"/>
      <g>
        <path class="cls-33" d="M328.38,345.98c-.09-.39-.38-.79-.82-.68-.26-.62,1.53-1.38,1.47-2.04-1.77-5.36-43.32-4.06-49.28-3.71-4.06.24-21.3.81-21.95,4.11.48.33.81.91.65,1.26-.1.23-.28.45-.66.37-.36-.68-1.23-1.61-.56-2.49,2.07-2.73,5.5-2.9,8.34-3.23l6.01-.7c11-1.29,25.83-1.36,37.22-.66,2.54.16,25.03,1.09,20.91,5.46-.47.5-.53,1.88-1.33,2.32Z"/>
        <g>
          <path class="cls-11" d="M410.26,479.5c-7.78-4.37-14.3-10.84-22.11-15.85.35-1.14.66-1.82-.27-1.77,1.46-7.63,2.95-17.97,3.73-26.12l.7-7.38c.19-1.96.33-3.96.99-5.81,2.18,10,5.46,19.08,9.92,29.37,2.07,4.78,3.66,9.92,5.24,14.81,1.38,4.29,1.04,8.63,1.8,12.75Z"/>
          <path class="cls-36" d="M212.13,402.1l.52,22.85c.06,2.8,3.51,24.91,5.84,26.13l-9.14,8.52c-6.48-18.6-5.7-38.61,1.29-56.44.3-.76.76-1.26,1.5-1.07Z"/>
          <path class="cls-40" d="M398.04,402.23c-.85,5.19-3.38,10-4.68,15.56-.39,1.67.39,3.49-.07,4.77-.66,1.85-.8,3.85-.99,5.81l-.7,7.38c-.78,8.15-2.27,18.49-3.73,26.12.02.79-.54.8-.87.06l3.05-21.08c.33-2.28,2.02-20.05,2.08-22.23l.79-27.97.61,22.52,3.18-8.91c.29-.81.51-1.96,1.32-2.04Z"/>
          <path class="cls-21" d="M218.49,451.09c-2.33-1.22-5.77-23.33-5.84-26.13l-.52-22.85c-.02-1.1.48-2.3.62-3.59l.82-7.79c.61-5.74,1.12-11.24,3.17-16.54-.2,7.04-2.29,14.63-2.73,21.68l-.66,10.66c-1.15,18.66,2,29.36,5.13,44.57Z"/>
          <path class="cls-6" d="M167.54,500.22c1.48-8.06,20.03-18.24,18.39-21.06-.8-1.37-5.37,1.37-6.88-.07,5.18-2.35,12.35.09,14.32-4.95.62-1.21,1.33-.83,1.01.67-2.87,2.1-5.27,4.48-7.69,6.83l-19.15,18.57Z"/>
          <path class="cls-11" d="M410.26,479.5c6.02,3.38,18.09,13.74,21.28,20.98-2.09-.7-2.38-3.06-3.73-4.68-5.35-6.46-11.79-11.02-17.55-16.3Z"/>
          <path class="cls-40" d="M398.04,402.23c.62-3.8,3.15-10.15,5.37-13.66.12,1.84-4.77,13.61-5.37,13.66Z"/>
        </g>
      </g>
    </g>
  </g>
  <path class="cls-39" d="M345.18,78.25c9.59,4.03,16.87,11.74,22.44,21.05l12.45,20.8c8.43,14.08,13.89,29.06,15.52,45.57l1.81,18.34c2.81,28.49,23.21,47.37,41.83,66.53,16.59,17.07,26.71,39.33,17.3,62.92-3.21,8.04-1.33,16.58,3.6,23.21,7.92,10.67,21.48,16.82,25.23,35.75,5.26,26.54-13.46,49.16-35.89,59.49-1.2-19.45-3.4-38.84-6.46-58.27-3.9-24.75-11.05-46.09-36.19-56.21-10.22-4.12-20.31-7.05-30.63-9.42-6.71-1.54-13.3-3.85-20.19-6.13-8.51-2.82-14.78-8.99-17.53-17.59-4.73-14.8-6.27-38.6-3.23-53.16,5.73-8.65,13.07-17.74,14.87-28.84,5.39.05,10-2.12,13.3-6.74,4.12-5.77,6.08-12.95,3.29-19.39-1.24-2.87-3.62-5-6.32-5.45-3.24-.54-5.86,1-8.59,4.09-1.16-2.53-2.36-2.92-4.58-3.17-12.06-1.33-23.38-5.05-33.21-11.84-3.75.56-9.36,3.17-10.59-.51-1.03-3.08,2.9-3.95,4.55-5.29-12.42-13.72-15.1-28.06-24.72-43.09-15.99,5.55-27.89,18.11-32.62,34.63-2.66,9.29-3.03,18.61-2.44,28.36.45,7.51.46,14.68,1.33,21.64l1.16,9.32c2.31,18.49,16.19,38.19,34.15,44.16l-.37,16.25c-.16,6.77-1.3,13.6-3.41,20.39-2.38,7.68-7.56,13.23-15.21,15.69-5.96,1.92-11.73,3.68-17.49,5-11.79,2.68-23.38,6.23-34.79,10.85-12.94,5.23-22.74,14.52-28.43,27.36-3.1,7.01-5.6,13.93-7.47,21.04-16.53-19.67-26.14-52.35-3.84-73.01,2.94-7.61,7.57-13.69,13.58-18.97l14.56-12.79c-1.22-5.15-3.17-9.94-5.39-15.02-6.84-15.63-4.71-32.08,5.53-45.49,6.8-8.9,19.68-24.83,20.13-35.89.51-12.69.3-24.88,4.67-36.76,7.91-26.03,32.33-46.58,60.66-41.23,16.41-12.7,38.89-16.03,57.62-8.16Z"/>
  <g>
    <path class="cls-20" d="M328.38,345.98l-4.99,38.46c-2.98-2.2-13.64-10.61-16.89-7.77-5.27,4.6,9.16,10.83,10.1,14.07-4.23-1.23-19.09-10.81-20.49-4.18-.98,4.63,8.29,6.71,11.12,10.26-4.41-1.07-9.15-5.09-11.55-2.34-3.46,3.96,6.57,8.94,6.88,10.63.33,1.79-3.44.84-4.2,1.58-4.77,4.68,12.32,19.6,11.54,24.57-12.32,2.76-25.42,2.69-37.76.03l10.45-15.49c1.63-2.42,3.1-5.07,2.69-7.59.31,1.92,2.41-22.92.49-14.93l.81-3.37c.2-.81-1.53-1.9-2.78-2.58.47-2.44-.31-5.73-2.68-6.88-2.78-1.34-4.22,1.6-5.78,2.24-4.54,1.89-8.07,5.22-12.72,8.35-.75-4.07,15.66-11.97,10.28-17.08-3.18-3.01-9.11,4.64-11.78,4.58l-3.27-32.65c6.6,1.71,13.4,2.73,20.22,2.7,10.47-.04,21.07.65,31.54-.2l5.74-.46c.95-.08,12.86-1.09,12.2-2.64.44-.12.73.29.82.68Z"/>
    <path class="cls-9" d="M327.56,345.3c.66,1.55-11.25,2.56-12.2,2.64-2.96-1.52-6.64-.13-10.01-.11l-25.91.19c-.72,0-1.43-.17-1.36.58-6.82.03-13.62-.99-20.22-2.7-.02-.21.1-.42-.07-.61.38.09.56-.14.66-.37.16-.35-.17-.93-.65-1.26.65-3.3,17.89-3.87,21.95-4.11,5.95-.35,47.51-1.65,49.28,3.71.06.66-1.73,1.42-1.47,2.04Z"/>
    <path class="cls-38" d="M315.36,347.94l-5.74.46c-10.47.85-21.06.15-31.54.2-.06-.75.65-.57,1.36-.58l25.91-.19c3.37-.02,7.05-1.41,10.01.11Z"/>
  </g>
  <g>
    <path class="cls-24" d="M284.47,265.24l.37-16.25c5.23,1.74,11.35,1.15,16.91.08,10.92-2.1,19.54-7.87,29.12-13.93-2.3,7.33-7.65,11.98-12.51,16.9-8.32,8.41-22.35,14.66-33.89,13.21Z"/>
    <path class="cls-17" d="M250.69,204.82l-1.16-9.32c1.27-4.19,6.29-3.95,9.96-3.19,2.26.47,4.69,2.59,5.66,5.99,1.27,4.42-3.31,8.31-7.38,7.66l-7.08-1.14Z"/>
    <g>
      <path class="cls-25" d="M376.2,308c-5.42,10.22-22.97,17.79-34.46,20.78-14.57,3.8-29.32,4.75-43.87,3.57-7.46-11.62,4.28-13.74,2.89-21.19-.4-2.15-1.67-4.98-4.78-6.02,5.36,12.7-9.42,11.82-1.63,26.68-15.4-1.15-40.38-9.52-46-25.52,5.77-1.31,11.53-3.08,17.49-5,7.65-2.46,12.83-8.01,15.21-15.69,2.11-6.79,3.25-13.62,3.41-20.39,11.54,1.45,25.58-4.79,33.89-13.21,4.86-4.92,10.21-9.57,12.51-16.9-9.58,6.07-18.21,11.83-29.12,13.93-5.56,1.07-11.68,1.66-16.91-.08-17.96-5.97-31.84-25.67-34.15-44.16l7.08,1.14c4.07.66,8.65-3.24,7.38-7.66-.97-3.4-3.4-5.52-5.66-5.99-3.67-.76-8.69-1.01-9.96,3.19-.87-6.96-.88-14.13-1.33-21.64-.58-9.75-.21-19.08,2.44-28.36,4.73-16.52,16.63-29.08,32.62-34.63,9.61,15.04,12.3,29.37,24.72,43.09-1.66,1.34-5.58,2.21-4.55,5.29,1.23,3.68,6.84,1.07,10.59.51,9.83,6.79,21.15,10.51,33.21,11.84,2.22.24,3.42.64,4.58,3.17,2.74-3.1,5.35-4.64,8.59-4.09,2.69.45,5.07,2.58,6.32,5.45,2.79,6.45.84,13.63-3.29,19.39-3.3,4.62-7.91,6.79-13.3,6.74-1.8,11.1-9.14,20.2-14.87,28.84-3.04,14.56-1.5,38.36,3.23,53.16,2.75,8.6,9.02,14.78,17.53,17.59,6.9,2.28,13.48,4.59,20.19,6.13Z"/>
      <g>
        <path class="cls-22" d="M297.87,332.36c.34.52.08,1.5-.06,2.12-1.51-.68-2.35-1.81-3.45-2.65-7.79-14.86,6.98-13.98,1.63-26.68,3.1,1.03,4.38,3.87,4.78,6.02,1.39,7.44-10.35,9.57-2.89,21.19Z"/>
        <path class="cls-16" d="M337.65,199.49c-3.55,5.14-10.09,6.38-15.53,4.14-2-.82-3.37-2.53-3.74-4.03-.53-2.11.02-4.43,1.87-6.1,4.16-3.75,10.91-5.08,15.48-2.43,2.96,1.71,3.84,5.63,1.92,8.42Z"/>
        <path class="cls-8" d="M304.61,219.08c-5.65,5.06-12.71,9.56-20.27,6.57-.83-.33-8.2-5.61-5.66-5.69,5.94.53,10.13,1.1,16.72.31l4.41-.52c1.66-.2,3.31-2.01,4.81-.67Z"/>
        <path class="cls-3" d="M275.13,160.63c-1.1,4.62-13.35-3.87-24.71,1.94,1.53-9.69,26.61-9.92,24.71-1.94Z"/>
        <path class="cls-37" d="M304.55,216.73c.03,2.25-2.39,1.69-4.07,1.91l-6.48.87c-3.55.48-16.13.41-16.53-1.6.32-.07.54-1.16.91-1.32.25-.11,1.05.65,1.28.39,2.52-2.87,5.48-1.98,8.41-2.35,2.72-.35,4.65-1.71,7.75-.31,2.77,1.26,6.02,1.66,8.74,2.41Z"/>
        <path class="cls-7" d="M325.04,183.25c2.03.45,1.5.7,1.06.94-.76.43-1.44-.6-1.8-.49-6.31,1.82-14.56,1.42-17.87-5.38,7.54,5.82,16.08,5.19,23.08-.3-1.78,6.21-1.64,2.12-4.46,5.23Z"/>
        <path class="cls-26" d="M256.99,183.84c.91.17,2.05.52,2.84-.22-.73-.59-1.67-.31-2.04-.42-.88-1.11-2.94-2.11-2.61-4.37,5.69,5.49,13.52,5.69,20.22.97-1.91,7.52-19.79,6.05-18.41,4.04Z"/>
        <path class="cls-12" d="M286.92,204.89c-3.23-.1-6.83-2.08-7.79-5.32-.74-2.52,1.8-4.32,3.01-6.11,3.13-4.66,3.25-9.99,3.66-15.65,3.87,19.3-15.21,18.71,1.13,27.08Z"/>
        <path class="cls-31" d="M304.61,219.08c-1.5-1.34-3.15.47-4.81.67l-4.41.52c-6.59.78-10.79.21-16.72-.31-.65-.62-1.79-.58-2.51-1.7-.28-.43.93-.47,1.31-.36.4,2.02,12.98,2.08,16.53,1.6l6.48-.87c1.68-.23,4.1.33,4.07-1.91,1.23.56,1.84-1.31,3.53-.76l-3.48,3.12Z"/>
        <path class="cls-27" d="M353.47,193.48l.74-2.92c.13-.5.82-.73,1.12-.99.8-.69-.79-1.56-.44-1.99,1.51-1.86-.86-4.07-.52-5.34.82-3.11,4.95-6.33,8.09-3.48-1.89.46-3.55-1.16-4.75.49-.77,1.07-3.14,2.17-2.27,4.01,1.75,3.69,1.63,7.47-1.96,10.22Z"/>
        <path class="cls-28" d="M299.1,289.21c1.2-.69,2.29-.42,2.92.51.57.84.33,2.06-.57,2.71-.83.6-1.65.54-2.23.16-.97-.64-1.78-2.42-.12-3.39Z"/>
        <path class="cls-19" d="M293.61,203.35c-.29.48-2.65.67-2.63-.3.03-1.41,2.11-.96,2.63.3Z"/>
        <path class="cls-15" d="M256.99,183.84c-.43-.39.49-.6.8-.64.36.11,1.31-.17,2.04.42-.79.74-1.93.39-2.84.22Z"/>
      </g>
    </g>
    <path class="cls-32" d="M285.28,408.2c-1.31.43-1.19-1.48-1.99-1.28-3.04.79-2.29,2.23-4.48,3.48-1.41.81-2.3-2.78-4.46-2.74-2.37.04-3.45,4.46-4.53,2.36,2.86-2.19,4.95-5.55,8.11-7.36,1.64-.93,2.42-.62,3.28-2.97.6-1.63,4.03-3.39,3.68-5.7-.42-2.72-4.78-3.49-6.74-2.1-.19-1.03-1.3-.51-1.72.14-.25.39-1.71,1.08-.48,1.47-.68.5-1.15,1.24-1.97,1.69-.14-.53-.77-1.03-1.31-1.09-.19-1.3,2.96-1.48,4.61-4.1,1.8-.27,1.68-2.24,3.02-3.49-1.8-1.58-3.73-2.22-4.94-3.82,1.56-.65,3-3.58,5.78-2.24,2.37,1.15,3.15,4.44,2.68,6.88,1.25.68,2.97,1.77,2.78,2.58l-.81,3.37c1.92-7.99-.18,16.85-.49,14.93Z"/>
    <g>
      <path class="cls-14" d="M323.39,384.44c2.03,1.49,3.06,3.67,5.27,4.76.74.37,2.11-1.27,2.99-.16.41.52.65,1.38,1.07,2.39,3.51,8.59,5.37,16.96,6.83,25.88.61,3.75,1.2,8.13,3.73,11.33,5.02,6.35,10.8,11.4,16.82,16.89.43.39,2.19-.63,2.33.11.08.43.47,1.32-.2,2.2-12.76,16.61-31.85,18.7-30.81,17.86-.62.5-.49-.59-.52-.9-.05-.55.45-1.27.89-1.73l2.03-2.11c.89-.93-4.41-9.91-6.39-11.15-6.87-4.31-12.5-9.44-15.76-17-.36-.84-.86-1.59-1.8-1.56.78-4.97-16.31-19.89-11.54-24.57.76-.75,4.53.21,4.2-1.58-.31-1.69-10.34-6.68-6.88-10.63,2.4-2.75,7.14,1.27,11.55,2.34.64.8,1.58,1.65,2.71,2.03.57.2.62,2.04,2.06,1.42.64.55,1.64,1.58,2.54,1.84,1.29,1.6,2.04,3.26,4.09,4.16.03-2.01-2.26-3.65-4.09-4.16-.78-.98-1.17-2.27-2.66-2.58-.72-.15-1.07-1.1-1.94-.68.4-1.61-1.62-1.77-2.71-2.03-2.83-3.55-12.1-5.62-11.12-10.26,1.4-6.63,16.26,2.94,20.49,4.18-.94-3.24-15.38-9.47-10.1-14.07,3.25-2.83,13.92,5.58,16.89,7.77Z"/>
      <g>
        <path class="cls-34" d="M314.3,418.13c-.96-.21-1.01-.22-1.26-.29,1.78.5-6.49-8.91-5.89-9.59,3.62,2.53,5.38,6.45,7.15,9.88Z"/>
        <path class="cls-10" d="M314.53,402.1c1.82.51,4.11,2.15,4.09,4.16-2.05-.89-2.8-2.56-4.09-4.16Z"/>
        <path class="cls-10" d="M314.53,402.1c-.9-.25-1.89-1.29-2.54-1.84,0-.25-.03-.51-.12-.74,1.5.31,1.88,1.6,2.66,2.58Z"/>
        <path class="cls-18" d="M309.93,398.85c-1.14-.38-2.07-1.24-2.71-2.03,1.09.26,3.11.42,2.71,2.03Z"/>
        <path class="cls-4" d="M311.87,399.52c.09.24.13.49.12.74-1.44.62-1.49-1.21-2.06-1.42.86-.42,1.22.53,1.94.68Z"/>
      </g>
    </g>
    <g>
      <path class="cls-14" d="M275.34,382.69c1.21,1.6,3.14,2.24,4.94,3.82-1.34,1.25-1.22,3.22-3.02,3.49-1.65,2.62-4.8,2.81-4.61,4.1.05.34-.14.74,0,1.02.35.65.84.33,1.31.07.83-.45,1.29-1.19,1.97-1.69l2.2-1.61c1.96-1.39,6.32-.62,6.74,2.1.36,2.32-3.08,4.07-3.68,5.7-.86,2.35-1.65,2.04-3.28,2.97-3.16,1.8-5.24,5.17-8.11,7.36,1.08,2.1,2.16-2.32,4.53-2.36,2.16-.04,3.05,3.55,4.46,2.74,2.2-1.25,1.44-2.69,4.48-3.48.8-.21.68,1.7,1.99,1.28.4,2.52-1.06,5.17-2.69,7.59l-10.45,15.49c-4.14,6.14-7.38,12.88-13.81,17.55-1.92,1.39-2.67,3.81-3.2,5.49-5.03,6.15.7,2.78-1.47,10.94-10.11-.59-21.89-11.43-27.04-19.96,6.44-7.64,15.05-13.65,16.46-23.43l2.08-14.39c.83-5.74,3.24-10.7,4.7-16.27l3.47-13.27c.4-1.52,1.79-3.03,3.51-1.95,1.47.92,1.91,2.79,2.43,4.69,1.24.05,1.72-1.25,1.86-2.16,2.67.06,8.6-7.6,11.78-4.58,5.38,5.11-11.03,13.01-10.28,17.08,4.64-3.13,8.18-6.46,12.72-8.35Z"/>
      <g>
        <path class="cls-32" d="M274.99,412.37c6.52-3.27-10.26,11.5-7.52,6.68,3.02-2.22,5.41-4.22,7.52-6.68Z"/>
        <path class="cls-41" d="M263.09,404.34c.78-2.7,2.92-3.89,4.9-5.56-.78,2.7-2.92,3.89-4.9,5.56Z"/>
        <path class="cls-5" d="M272.02,396.13c-.74,1.46-1.87,2.12-3.44,2.69.74-1.23,1.26-2.57,3.44-2.69Z"/>
        <path class="cls-2" d="M278.13,391.89l-2.2,1.61c-1.23-.38.23-1.07.48-1.47.42-.65,1.53-1.17,1.72-.14Z"/>
        <path class="cls-13" d="M273.97,395.19c-.47.25-.96.58-1.31-.07-.14-.27.05-.68,0-1.02.54.06,1.18.56,1.31,1.09Z"/>
      </g>
    </g>
  </g>
</svg>